<?xml version="1.0" encoding="utf-8"?>
<!-- Generator: Adobe Illustrator 26.5.3, SVG Export Plug-In . SVG Version: 6.00 Build 0)  -->
<svg version="1.1" id="レイヤー_1" xmlns="http://www.w3.org/2000/svg" xmlns:xlink="http://www.w3.org/1999/xlink" x="0px"
	 y="0px" viewBox="0 0 855.1 86.5" style="enable-background:new 0 0 855.1 86.5;" xml:space="preserve">
<style type="text/css">
	.st0{fill:#231815;}
	.st1{fill:#DB0013;}
</style>
<g>
	<g>
		<path class="st0" d="M163.5,62.3c-3-3.5-8.8-10-16.6-14.6v37h-9.6V28.4h-24.6V20h64.4v8.4h-30.2v8.7c8.7,5.3,15.9,11,23,18.3
			L163.5,62.3z"/>
		<path class="st0" d="M213.5,61.4c-2.9-2.6-4.2-3.9-5.2-5.4h-0.2v28.7h-8.4V59.9h-0.1c-1.7,3.7-3.5,6.7-5.9,9.9l-7.1-4
			c8.8-11.8,10.9-20.1,12-26.3h-10.8v-8.1h12V18l8.1,0.5c0.6,0,1.9,0.1,1.9,0.8c0,0.6-1,1.5-1.7,2.2v9.8h9.1v8.1h-9.1v3.4
			c2.3,5,6.1,8.5,9.9,11.8L213.5,61.4z M224.3,64.6c-0.9-5.7-3.2-11.7-5.1-15.1l7.2-3.6c1.6,3.4,4.1,9.1,5.3,16.1L224.3,64.6z
			 M244.4,76.2c0,6.7-4.5,7.7-13,7.9l-4.1-8.6c2.5,0.3,5,0.3,5.5,0.3c2,0,3.2-0.1,3.2-2.7V39.2h-14.8v-8.1h14.8V17.7l7.2,0.4
			c1.4,0.1,2.5,0.2,2.5,0.8c0,0.6-0.7,1.4-1.3,2.1v10.2h8.4v8.1h-8.4V76.2z"/>
		<path class="st0" d="M275.2,61.9c-2.6,1.2-5.9,2.6-8.4,3.6c-0.4,0.8-0.7,1.4-1.3,1.4c-0.6,0-0.8-0.8-1.2-2.4l-1.8-6.6
			c2.6-0.7,6.3-1.7,12.8-4.3V38.4H271c-0.5,2.7-1,5.7-2,8.6l-7.5-1.2c2-6.9,3-15.2,3.5-21.5l7.1,1.6c1,0.2,1.9,0.5,1.9,1
			c0,0.5-0.6,1.1-1.4,1.8c-0.2,0.7-0.4,1.5-0.5,2.2h3.2v-12l7.2,0.6c1.5,0.2,2.6,0.2,2.6,0.9c0,0.8-0.9,1.9-1.8,2.9v7.5h6.4v7.5
			h-6.4v11.9c3.2-1.5,4.4-2.2,6.2-3.3l0.1,7.6c-1.2,0.7-2.6,1.6-6.4,3.4v26.2h-8V61.9z M303.7,18.3l7.8,0.4c1,0.1,2,0.2,2,0.7
			c0,0.7-0.5,1.4-1.1,2.2v4.3h13.3v7.4h-13.3v6.3h16.1V47h-8v7.1h7.4v7.5h-7.4v15.3c0,5.1-1.5,7.3-8.4,7.3h-3.8l-2.6-8.2
			c2.3,0.3,4.1,0.3,4.5,0.3c1.4,0,1.8-0.4,1.8-1.8V61.6h-20.3v-7.5h20.3V47h-21.5v-7.5h13.3v-6.3h-10.5v-7.4h10.5V18.3z M297.5,76.5
			c-1.7-3.3-3.9-6.8-6.3-9.4l5.9-4.6c3.1,3.6,5.4,7.3,6.7,9.8L297.5,76.5z"/>
		<path class="st0" d="M399.1,81.7c-6.7-8.2-9.2-13.3-10.8-16.7h-0.2v20.3h-8.7V63.5h-0.1c-6.9,11-12.4,15.9-15.9,19l-7.1-6.1
			c7.7-4.5,15.6-12.9,20-21h-12V47h15.1v-9.6h-6c-0.8,2.6-2,6.2-3.2,8.5l-6.7-3c-3.5,27.6-12.7,36.9-20,43.6l-7.8-4.9
			c9.4-6,13.1-13.9,15.9-20.7c-2-1.6-4.1-3-6.5-4.3c-0.7,1-1.9,2.9-2.9,3.9l-7.9-3.6c4.7-6.1,8.9-12.8,11.5-28.8h-7.8v-8.3h27.7v8.3
			h-12.1c-0.2,2-0.5,5-0.9,7h11.2c-0.1,1.4-0.1,2.3-0.2,3.2l0.2,0.2c2.6-5.5,4.4-12.6,5.2-18.7l7.8,1.6c1.4,0.3,2.1,0.8,2.1,1.3
			c0,0.5-0.7,1-2.1,1.9c-0.4,1.7-0.8,3.3-1.2,4.9h3.6V17.8l8.8,0.6c1.1,0.1,1.7,0.4,1.7,0.9c0,0.4-0.7,1.1-1.8,2.1v8.1h14.2v8h-14.2
			V47h15.9v8.4h-13.9c3.4,7.1,9.3,14.5,16.1,19.5L399.1,81.7z M351,43.1c-0.7,2.2-1.5,4.6-2.2,6.3c1.6,0.7,3.8,1.9,5.5,3.3
			c0.8-2.9,1.3-5.8,1.7-9.5H351z"/>
		<path class="st0" d="M436.1,66.7c-1.2-1.1-2.9-2.8-3.9-4.7H432v22.6h-7.8V66.7h-0.2c-0.9,2.2-2.6,5.1-3.8,6.7l-7.4-4.7
			c3.5-4.6,8-11.4,10-20.6h-8.7v-7.9h10.1V17.6l7.2,0.5c0.9,0.1,2,0.2,2,0.7c0,0.6-0.8,1.2-1.5,1.9v19.5h8.1v7.9H432V49
			c3.8,6.2,7.2,9.4,9.6,11.5L436.1,66.7z M416.3,39.2c-0.2-5-1.1-10.8-2.9-15.9l7.8-1.2c1.1,4.4,2,10,2.6,16.1L416.3,39.2z
			 M442.9,24.6h-0.1c-1.1,5.7-3,12.5-3.8,14.9l-6.8-1.8c1.1-3.4,2.9-9.5,3.4-15.4l7.4,1.5v-1.5H455v-4.8l7.8,0.2
			c0.7,0,1.7,0.1,1.7,0.5c0,0.5-0.4,1.1-1,1.7v2.3h13.9v6.4h-13.9v2.9h11.3v6.7h-11.3v2.9h14.8V48h-37.1v-6.7H455v-2.9h-11.1v-6.7
			H455v-2.9h-12.1V24.6z M475.1,78.6c0,5.5-3.3,6.3-12.3,6.4l-3.5-8.6c1.2,0.2,2.6,0.3,5.4,0.3c1.7,0,2.9,0,2.9-1.3v-1.6h-16.3v10.8
			h-7.4V50.1h31V78.6z M467.7,59.4v-3h-16.3v3H467.7z M467.7,67.9v-3h-16.3v3H467.7z"/>
		<path class="st0" d="M553.4,78.9h-64.1V70h27.2V32.1h-22.4v-8.7h54.7v8.7h-23.1V70h27.7V78.9z"/>
		<path class="st0" d="M586.4,59.9c-1.2-1.1-2.9-2.7-4.2-4.8H582v29.6h-7.7V56h-0.2c-2,5.6-4.9,10.8-6.7,13.4l-6.2-4.6
			c7.4-9.1,10.5-20.3,12-26.7h-9.3v-7.3h10.2V17.8l6.9,0.5c1.3,0.1,2.2,0.2,2.2,0.7c0,0.6-0.6,1.1-1.4,1.9v9.8h8.2V38H582v4.3
			c1.1,2.3,2.9,6.2,9,11.6L586.4,59.9z M613.8,45.8h15.1v7.5h-13.7c4.3,11.4,13,17.7,16.9,20.4l-5.6,6.1c-7.3-6.4-10.1-9.8-12.7-14
			h-0.2v18.6h-7.5V64.7h-0.2c-3,4.6-8.8,11.8-15.4,17.4l-6.2-5.6c5-4,13.7-11.7,18.7-23.2h-10.8v-7.5h13.9v-8h-6.8
			c-1.4,3.2-2.1,4.3-3.1,5.7l-6.5-3.4c4.6-6.4,6.4-12.8,7.3-18.3l6.3,1.6c1,0.2,1.7,0.5,1.7,1c0,0.6-0.7,0.9-1.6,1.3
			c-0.4,1.2-0.9,3.5-1.4,4.9h4V18l7.5,0.5c0.7,0,2.1,0.2,2.1,0.9c0,0.7-1,1.5-2,2.3v8.8h14.2v7.3h-14.2V45.8z"/>
		<path class="st0" d="M674.7,77.6c-9.1,1.9-20.4,4-29.8,5.8c-1.1,1.2-2,2.1-2.6,2.1s-1.1-0.7-1.3-1.6l-1.1-8.7
			c3.8-0.5,8.3-1.2,13.3-1.8v-16h-11.8V49H672v8.4h-9.6V72c4.4-0.5,9.8-1.4,12.8-1.8L674.7,77.6z M703.9,40h-23.3
			c3.5,22.5,12.4,33.2,15.6,33.2c1.4,0,2.5-3.5,3.7-7.2l6.1,5.9c-1.9,6.5-4.9,12.2-8.8,12.2c-3.9,0-8-2.7-12.7-9.4
			c-6-8.7-10.5-20.8-11.8-34.7H640v-8.4H672c-0.4-4.2-0.7-10.8-0.7-13.3l8.4,1.1c1.1,0.2,1.8,0.6,1.8,1.3c0,0.5-0.9,1.3-1.8,1.7
			c0.1,3.3,0.2,5.9,0.4,9.2h23.9V40z M695.2,31.5c-2.8-3.2-7.9-6.4-10.2-7.8l4.2-5.9c3.2,1.5,8.2,5,10.9,7L695.2,31.5z"/>
		<path class="st0" d="M774.9,46.4c-4-1.4-6.6-2.9-8.7-4.1v6.6h-36.3v-6.4c-3.9,2.5-6.3,3.6-9.3,5l-5.8-6.8
			c12.4-4.9,21.4-12.8,27.5-23.6l9.8,1.7c1.6,0.3,2.1,0.5,2.1,0.9c0,0.5-0.2,0.8-0.6,1.3c0.9,1.2,2.7,3.3,3.1,3.6
			c5.8,6,13.9,10.7,24.2,14.3L774.9,46.4z M769.9,85.1c-1.5-2.6-3.2-4.6-5-7c-4.9,0.5-28.2,3.4-41,4.8c-0.5,0.8-1.1,1.6-1.4,1.6
			c-0.5,0-0.8-1-1.1-1.7l-2-9.1c4,0,5.9,0,10.6-0.2c2.6-4.7,6.2-11.2,6.9-12.5h-16.7v-7.5h55.4V61h-16.3c4.4,3.8,11,10,17.5,18.3
			L769.9,85.1z M764.3,41.2V41c-3.5-2.2-10.5-6.9-16.8-15c-5.7,7.1-9.7,10.8-15.6,15v0.2H764.3z M758.4,61h-11.3
			c-2.6,4.3-3.5,5.9-7.1,11.9c3.3-0.2,11.9-0.5,18.8-1.5c-1.4-1.3-2.9-2.8-5.9-4.8L758.4,61z"/>
		<path class="st0" d="M788.2,61.9c8.4-5.3,15.3-12.7,20-21.5h-16.9v-8.4h9V18.3l8,0.9c1,0.2,1.6,0.5,1.6,0.9c0,0.4-0.7,1.2-1.7,1.9
			v10.1h8.2l3.4,3.5c-1.6,4-3.4,7.8-8.3,14.6c2.9,4,6.8,6.8,9.6,8.7l-4.4,6.4c-2.3-1.5-5.8-4.6-8.3-7.4v26.3h-7.9V62.6
			c-3.1,2.8-4.7,4-6.6,5.3L788.2,61.9z M830.7,18.2l8.6,0.8c1,0.1,1.6,0.5,1.6,0.9c0,0.4-0.5,1.2-1.5,1.8v18.7h13.9v8.4h-13.9v25.9
			h15.7v8.4H813v-8.4h17.7V48.7h-11.4v-8.4h11.4V18.2z"/>
	</g>
	<g>
		<path class="st1" d="M32,13.2c0,0-16.7-0.3-18.6,16.1c0,0-1,13,13.8,17c0,0,3.2,0.7,13.2,0.4V33.5l15.4,0.1c0,0,19.3,0.1,23,19.7
			c0,0,2.8,13.8-11.3,22.4c0,0-4.2,3.5-14.1,3.5H0.3v0.1v7.1h50.4h2.7h2c0,0,23.5,0.2,30.3-23c0,0,7.1-25.1-20.7-35.6
			c0,0-3.4-1.4-11.1-1.5c-7.7-0.1-20.8,0-20.8,0v13.2c-0.5,0.1-10.3,1.1-12.2-8.4c0,0-1.7-9.1,10.5-10.9h4.6h0.6h49.8v-7.1H36.1
			L32,13.2z"/>
		<path class="st1" d="M36.7,0l-0.6,0L32,0c0,0-18.1-1-28.3,16.4C-6.6,33.8,5.8,56.1,25.6,59.5c0,0,2.4,0.7,10.3,0.6
			C43.3,60,52.3,60,53.4,60c0.1,0,0.1,0,0.1,0V46.8c0.5,0,9.4-0.7,11.8,6.8c2.4,7.7-4.8,12.7-10,12.5l-4.6,0.1H0.3v7.1h50.4v0h3.2
			c0,0,17.3,0.4,19.4-15.3c0,0,1.9-11.8-11.5-17.2c0,0-3.6-1.2-5.9-1.2c-0.6,0-1.4,0-2.4,0c-3,0-7.1,0-7.1,0l0,13.2l-14.9,0
			c0,0-20.3,0.3-23.6-20.5c0,0-2.5-16.7,15.8-23.8c0,0,2.9-1.3,10.5-1.4c1.9,0,3,0,3.6,0h48.7V0H36.7z"/>
	</g>
</g>
</svg>
